solid UAV_3d_laser_sensor_stand
facet normal -0.6087614290087209 -0.7933533402912352 -0.0
  outer loop
    vertex 47.77817459305202 47.77817459305202 3.9999999999999996
    vertex 45.5 49.52627944162882 0.0
    vertex 47.77817459305202 47.77817459305202 0.0
  endloop
endfacet
facet normal -0.6087614290087209 -0.7933533402912352 -0.0
  outer loop
    vertex 45.5 49.52627944162882 0.0
    vertex 47.77817459305202 47.77817459305202 3.9999999999999996
    vertex 45.5 49.52627944162882 3.9999999999999996
  endloop
endfacet
facet normal 0.923879532511287 -0.3826834323650892 0.0
  outer loop
    vertex 54.48888739433603 36.117714323462195 0.0
    vertex 52.99038105676659 32.50000000000001 3.9999999999999996
    vertex 52.99038105676659 32.50000000000001 0.0
  endloop
endfacet
facet normal 0.923879532511287 -0.3826834323650892 0.0
  outer loop
    vertex 52.99038105676659 32.50000000000001 3.9999999999999996
    vertex 54.48888739433603 36.117714323462195 0.0
    vertex 54.48888739433603 36.117714323462195 3.9999999999999996
  endloop
endfacet
facet normal -0.9914448613738105 0.13052619222005177 0.0
  outer loop
    vertex 51.0 40.0 3.9999999999999996
    vertex 50.62518408917975 37.152990503872275 0.0
    vertex 50.62518408917975 37.152990503872275 3.9999999999999996
  endloop
endfacet
facet normal -0.9914448613738105 0.13052619222005177 0.0
  outer loop
    vertex 50.62518408917975 37.152990503872275 0.0
    vertex 51.0 40.0 3.9999999999999996
    vertex 51.0 40.0 0.0
  endloop
endfacet
facet normal 0.9914448613738107 -0.13052619222005066 0.0
  outer loop
    vertex 55.0 40.0 0.0
    vertex 54.48888739433603 36.117714323462195 3.9999999999999996
    vertex 54.48888739433603 36.117714323462195 0.0
  endloop
endfacet
facet normal 0.9914448613738107 -0.13052619222005066 0.0
  outer loop
    vertex 54.48888739433603 36.117714323462195 3.9999999999999996
    vertex 55.0 40.0 0.0
    vertex 55.0 40.0 3.9999999999999996
  endloop
endfacet
facet normal -0.9914448613738105 -0.1305261922200517 0.0
  outer loop
    vertex 25.0 40.0 3.9999999999999996
    vertex 25.511112605663975 36.11771432346219 0.0
    vertex 25.511112605663975 36.11771432346219 3.9999999999999996
  endloop
endfacet
facet normal -0.9914448613738105 -0.1305261922200517 0.0
  outer loop
    vertex 25.511112605663975 36.11771432346219 0.0
    vertex 25.0 40.0 3.9999999999999996
    vertex 25.0 40.0 0.0
  endloop
endfacet
facet normal -0.9238795325112866 0.3826834323650901 0.0
  outer loop
    vertex 50.62518408917975 37.152990503872275 3.9999999999999996
    vertex 49.52627944162882 34.5 0.0
    vertex 49.52627944162882 34.5 3.9999999999999996
  endloop
endfacet
facet normal -0.9238795325112866 0.3826834323650901 0.0
  outer loop
    vertex 49.52627944162882 34.5 0.0
    vertex 50.62518408917975 37.152990503872275 3.9999999999999996
    vertex 50.62518408917975 37.152990503872275 0.0
  endloop
endfacet
facet normal -0.9914448613738105 -0.13052619222005177 0.0
  outer loop
    vertex 50.62518408917975 42.847009496127725 3.9999999999999996
    vertex 51.0 40.0 0.0
    vertex 51.0 40.0 3.9999999999999996
  endloop
endfacet
facet normal -0.9914448613738105 -0.13052619222005177 0.0
  outer loop
    vertex 51.0 40.0 0.0
    vertex 50.62518408917975 42.847009496127725 3.9999999999999996
    vertex 50.62518408917975 42.847009496127725 0.0
  endloop
endfacet
facet normal -0.3826834323650901 -0.9238795325112866 -0.0
  outer loop
    vertex 45.5 49.52627944162882 3.9999999999999996
    vertex 42.847009496127725 50.62518408917975 0.0
    vertex 45.5 49.52627944162882 0.0
  endloop
endfacet
facet normal -0.3826834323650901 -0.9238795325112866 -0.0
  outer loop
    vertex 42.847009496127725 50.62518408917975 0.0
    vertex 45.5 49.52627944162882 3.9999999999999996
    vertex 42.847009496127725 50.62518408917975 3.9999999999999996
  endloop
endfacet
facet normal -0.7933533402912349 -0.608761429008721 -0.0
  outer loop
    vertex 27.009618943233423 32.5 3.9999999999999996
    vertex 29.39339828220179 29.39339828220179 0.0
    vertex 29.39339828220179 29.39339828220179 3.9999999999999996
  endloop
endfacet
facet normal -0.7933533402912349 -0.608761429008721 -0.0
  outer loop
    vertex 29.39339828220179 29.39339828220179 0.0
    vertex 27.009618943233423 32.5 3.9999999999999996
    vertex 27.009618943233423 32.5 0.0
  endloop
endfacet
facet normal 0.9238795325112863 -0.3826834323650908 0.0
  outer loop
    vertex 30.47372055837118 45.5 0.0
    vertex 29.374815910820253 42.84700949612773 3.9999999999999996
    vertex 29.374815910820253 42.84700949612773 0.0
  endloop
endfacet
facet normal 0.9238795325112863 -0.3826834323650908 0.0
  outer loop
    vertex 29.374815910820253 42.84700949612773 3.9999999999999996
    vertex 30.47372055837118 45.5 0.0
    vertex 30.47372055837118 45.5 3.9999999999999996
  endloop
endfacet
facet normal 0.0 0.0 -1.0
  outer loop
    vertex 49.52627944162882 34.5 0.0
    vertex 50.60660171779821 29.39339828220179 0.0
    vertex 47.77817459305202 32.22182540694798 0.0
  endloop
endfacet
facet normal 0.0 0.0 -1.0
  outer loop
    vertex 50.60660171779821 29.39339828220179 0.0
    vertex 49.52627944162882 34.5 0.0
    vertex 50.62518408917975 37.152990503872275 0.0
  endloop
endfacet
facet normal 0.0 0.0 -1.0
  outer loop
    vertex 50.60660171779821 29.39339828220179 0.0
    vertex 50.62518408917975 37.152990503872275 0.0
    vertex 52.99038105676659 32.50000000000001 0.0
  endloop
endfacet
facet normal 0.0 0.0 -1.0
  outer loop
    vertex 52.99038105676659 32.50000000000001 0.0
    vertex 50.62518408917975 37.152990503872275 0.0
    vertex 51.0 40.0 0.0
  endloop
endfacet
facet normal 0.0 0.0 -1.0
  outer loop
    vertex 52.99038105676659 32.50000000000001 0.0
    vertex 51.0 40.0 0.0
    vertex 55.0 40.0 0.0
  endloop
endfacet
facet normal 0.0 0.0 -1.0
  outer loop
    vertex 52.99038105676659 32.50000000000001 0.0
    vertex 55.0 40.0 0.0
    vertex 54.48888739433603 36.117714323462195 0.0
  endloop
endfacet
facet normal -0.13052619222005102 -0.9914448613738106 -9.043239588133575e-17
  outer loop
    vertex 45.797546610296465 61.63673850887513 16.999999999999996
    vertex 40.0 62.4 3.9999999999999996
    vertex 45.797546610296465 61.63673850887513 3.9999999999999996
  endloop
endfacet
facet normal -0.13052619222005102 -0.9914448613738106 -9.043239588133575e-17
  outer loop
    vertex 40.0 62.4 3.9999999999999996
    vertex 45.797546610296465 61.63673850887513 16.999999999999996
    vertex 40.0 62.4 16.999999999999996
  endloop
endfacet
facet normal 0.38268343236509034 -0.9238795325112865 -8.8647747401786e-17
  outer loop
    vertex 34.20245338970352 61.63673850887512 16.999999999999996
    vertex 28.799999999999994 59.39896904477141 3.9999999999999996
    vertex 34.20245338970352 61.63673850887512 3.9999999999999996
  endloop
endfacet
facet normal 0.38268343236509034 -0.9238795325112865 -8.8647747401786e-17
  outer loop
    vertex 28.799999999999994 59.39896904477141 3.9999999999999996
    vertex 34.20245338970352 61.63673850887512 16.999999999999996
    vertex 28.799999999999994 59.39896904477141 16.999999999999996
  endloop
endfacet
facet normal -9.160957760875483e-33 -1.591067367883691e-16 1.0
  outer loop
    vertex 40.0 62.4 16.999999999999996
    vertex 34.5 64.5 17.0
    vertex 34.20245338970352 61.63673850887512 16.999999999999996
  endloop
endfacet
facet normal -9.160957760875483e-33 -1.591067367883691e-16 1.0
  outer loop
    vertex 34.5 64.5 17.0
    vertex 40.0 62.4 16.999999999999996
    vertex 45.5 64.5 17.0
  endloop
endfacet
facet normal -9.160957760875483e-33 -1.591067367883691e-16 1.0
  outer loop
    vertex 45.5 64.5 17.0
    vertex 40.0 62.4 16.999999999999996
    vertex 45.797546610296465 61.63673850887513 16.999999999999996
  endloop
endfacet
facet normal -9.160957760875483e-33 -1.591067367883691e-16 1.0
  outer loop
    vertex 45.5 64.5 17.0
    vertex 45.797546610296465 61.63673850887513 16.999999999999996
    vertex 45.5 68.5 16.999999999999996
  endloop
endfacet
facet normal -9.160957760875483e-33 -1.591067367883691e-16 1.0
  outer loop
    vertex 45.5 68.5 16.999999999999996
    vertex 45.797546610296465 61.63673850887513 16.999999999999996
    vertex 55.0 68.5 17.0
  endloop
endfacet
facet normal -9.160957760875483e-33 -1.591067367883691e-16 1.0
  outer loop
    vertex 55.0 68.5 17.0
    vertex 45.797546610296465 61.63673850887513 16.999999999999996
    vertex 51.199999999999996 59.39896904477143 16.999999999999996
  endloop
endfacet
facet normal -9.160957760875483e-33 -1.591067367883691e-16 1.0
  outer loop
    vertex 55.0 68.5 17.0
    vertex 51.199999999999996 59.39896904477143 16.999999999999996
    vertex 55.0 56.48312649045137 16.999999999999996
  endloop
endfacet
facet normal -9.160957760875483e-33 -1.591067367883691e-16 1.0
  outer loop
    vertex 28.799999999999994 59.39896904477141 16.999999999999996
    vertex 25.0 68.5 17.0
    vertex 25.0 56.483126490451376 16.999999999999996
  endloop
endfacet
facet normal -9.160957760875483e-33 -1.591067367883691e-16 1.0
  outer loop
    vertex 25.0 68.5 17.0
    vertex 28.799999999999994 59.39896904477141 16.999999999999996
    vertex 34.5 68.5 16.999999999999996
  endloop
endfacet
facet normal -9.160957760875483e-33 -1.591067367883691e-16 1.0
  outer loop
    vertex 34.5 68.5 16.999999999999996
    vertex 28.799999999999994 59.39896904477141 16.999999999999996
    vertex 34.20245338970352 61.63673850887512 16.999999999999996
  endloop
endfacet
facet normal -9.160957760875483e-33 -1.591067367883691e-16 1.0
  outer loop
    vertex 34.5 68.5 16.999999999999996
    vertex 34.20245338970352 61.63673850887512 16.999999999999996
    vertex 34.5 64.5 17.0
  endloop
endfacet
facet normal -0.38268343236509 -0.9238795325112867 -8.200327006723835e-17
  outer loop
    vertex 51.199999999999996 59.39896904477143 16.999999999999996
    vertex 45.797546610296465 61.63673850887513 3.9999999999999996
    vertex 51.199999999999996 59.39896904477143 3.9999999999999996
  endloop
endfacet
facet normal -0.38268343236509 -0.9238795325112867 -8.200327006723835e-17
  outer loop
    vertex 45.797546610296465 61.63673850887513 3.9999999999999996
    vertex 51.199999999999996 59.39896904477143 16.999999999999996
    vertex 45.797546610296465 61.63673850887513 16.999999999999996
  endloop
endfacet
facet normal -0.13052619222005177 -0.9914448613738104 -0.0
  outer loop
    vertex 42.847009496127725 50.62518408917975 3.9999999999999996
    vertex 40.0 51.0 0.0
    vertex 42.847009496127725 50.62518408917975 0.0
  endloop
endfacet
facet normal -0.13052619222005177 -0.9914448613738104 -0.0
  outer loop
    vertex 40.0 51.0 0.0
    vertex 42.847009496127725 50.62518408917975 3.9999999999999996
    vertex 40.0 51.0 3.9999999999999996
  endloop
endfacet
facet normal 0.7933533402912366 0.6087614290087188 1.300121316582757e-16
  outer loop
    vertex 30.473720558371173 34.50000000000001 0.0
    vertex 32.22182540694797 32.22182540694798 3.9999999999999996
    vertex 32.22182540694797 32.22182540694798 0.0
  endloop
endfacet
facet normal 0.7933533402912366 0.6087614290087188 1.300121316582757e-16
  outer loop
    vertex 32.22182540694797 32.22182540694798 3.9999999999999996
    vertex 30.473720558371173 34.50000000000001 0.0
    vertex 30.473720558371173 34.50000000000001 3.9999999999999996
  endloop
endfacet
facet normal -0.6087614290087215 -0.7933533402912345 -6.798575691486989e-17
  outer loop
    vertex 55.0 56.48312649045137 16.999999999999996
    vertex 51.199999999999996 59.39896904477143 3.9999999999999996
    vertex 55.0 56.48312649045137 3.9999999999999996
  endloop
endfacet
facet normal -0.6087614290087215 -0.7933533402912345 -6.798575691486989e-17
  outer loop
    vertex 51.199999999999996 59.39896904477143 3.9999999999999996
    vertex 55.0 56.48312649045137 16.999999999999996
    vertex 51.199999999999996 59.39896904477143 16.999999999999996
  endloop
endfacet
facet normal -0.9238795325112863 -0.3826834323650908 -0.0
  outer loop
    vertex 49.52627944162882 45.49999999999999 3.9999999999999996
    vertex 50.62518408917975 42.847009496127725 0.0
    vertex 50.62518408917975 42.847009496127725 3.9999999999999996
  endloop
endfacet
facet normal -0.9238795325112863 -0.3826834323650908 -0.0
  outer loop
    vertex 50.62518408917975 42.847009496127725 0.0
    vertex 49.52627944162882 45.49999999999999 3.9999999999999996
    vertex 49.52627944162882 45.49999999999999 0.0
  endloop
endfacet
facet normal 0.7933533402912348 -0.6087614290087211 0.0
  outer loop
    vertex 32.221825406947985 47.77817459305203 0.0
    vertex 30.47372055837118 45.5 3.9999999999999996
    vertex 30.47372055837118 45.5 0.0
  endloop
endfacet
facet normal 0.7933533402912348 -0.6087614290087211 0.0
  outer loop
    vertex 30.47372055837118 45.5 3.9999999999999996
    vertex 32.221825406947985 47.77817459305203 0.0
    vertex 32.221825406947985 47.77817459305203 3.9999999999999996
  endloop
endfacet
facet normal -0.7933533402912349 0.6087614290087212 -1.4084647596313355e-16
  outer loop
    vertex 49.52627944162882 34.5 3.9999999999999996
    vertex 47.77817459305202 32.22182540694798 0.0
    vertex 47.77817459305202 32.22182540694798 3.9999999999999996
  endloop
endfacet
facet normal -0.7933533402912349 0.6087614290087212 -1.4084647596313355e-16
  outer loop
    vertex 47.77817459305202 32.22182540694798 0.0
    vertex 49.52627944162882 34.5 3.9999999999999996
    vertex 49.52627944162882 34.5 0.0
  endloop
endfacet
facet normal 0.13052619222005202 -0.9914448613738105 0.0
  outer loop
    vertex 40.0 51.0 3.9999999999999996
    vertex 37.152990503872275 50.62518408917975 0.0
    vertex 40.0 51.0 0.0
  endloop
endfacet
facet normal 0.13052619222005202 -0.9914448613738105 0.0
  outer loop
    vertex 37.152990503872275 50.62518408917975 0.0
    vertex 40.0 51.0 3.9999999999999996
    vertex 37.152990503872275 50.62518408917975 3.9999999999999996
  endloop
endfacet
facet normal 0.707106781186548 -0.707106781186547 -1.566192033126358e-16
  outer loop
    vertex 32.22182540694797 32.22182540694798 0.0
    vertex 29.39339828220179 29.39339828220179 3.9999999999999996
    vertex 29.39339828220179 29.39339828220179 0.0
  endloop
endfacet
facet normal 0.707106781186548 -0.707106781186547 -1.566192033126358e-16
  outer loop
    vertex 29.39339828220179 29.39339828220179 3.9999999999999996
    vertex 32.22182540694797 32.22182540694798 0.0
    vertex 32.22182540694797 32.22182540694798 3.9999999999999996
  endloop
endfacet
facet normal -0.9238795325112865 -0.38268343236509045 -0.0
  outer loop
    vertex 25.511112605663975 36.11771432346219 3.9999999999999996
    vertex 27.009618943233423 32.5 0.0
    vertex 27.009618943233423 32.5 3.9999999999999996
  endloop
endfacet
facet normal -0.9238795325112865 -0.38268343236509045 -0.0
  outer loop
    vertex 27.009618943233423 32.5 0.0
    vertex 25.511112605663975 36.11771432346219 3.9999999999999996
    vertex 25.511112605663975 36.11771432346219 0.0
  endloop
endfacet
facet normal 0.9914448613738105 -0.13052619222005152 0.0
  outer loop
    vertex 29.374815910820253 42.84700949612773 0.0
    vertex 29.000000000000004 40.0 3.9999999999999996
    vertex 29.000000000000004 40.0 0.0
  endloop
endfacet
facet normal 0.9914448613738105 -0.13052619222005152 0.0
  outer loop
    vertex 29.000000000000004 40.0 3.9999999999999996
    vertex 29.374815910820253 42.84700949612773 0.0
    vertex 29.374815910820253 42.84700949612773 3.9999999999999996
  endloop
endfacet
facet normal 0.38268343236508845 -0.9238795325112873 0.0
  outer loop
    vertex 37.152990503872275 50.62518408917975 3.9999999999999996
    vertex 34.50000000000001 49.52627944162882 0.0
    vertex 37.152990503872275 50.62518408917975 0.0
  endloop
endfacet
facet normal 0.38268343236508845 -0.9238795325112873 0.0
  outer loop
    vertex 34.50000000000001 49.52627944162882 0.0
    vertex 37.152990503872275 50.62518408917975 3.9999999999999996
    vertex 34.50000000000001 49.52627944162882 3.9999999999999996
  endloop
endfacet
facet normal 0.9914448613738105 0.13052619222005202 0.0
  outer loop
    vertex 29.000000000000004 40.0 0.0
    vertex 29.374815910820253 37.152990503872275 3.9999999999999996
    vertex 29.374815910820253 37.152990503872275 0.0
  endloop
endfacet
facet normal 0.9914448613738105 0.13052619222005202 0.0
  outer loop
    vertex 29.374815910820253 37.152990503872275 3.9999999999999996
    vertex 29.000000000000004 40.0 0.0
    vertex 29.000000000000004 40.0 3.9999999999999996
  endloop
endfacet
facet normal 0.7933533402912353 -0.6087614290087205 0.0
  outer loop
    vertex 52.99038105676659 32.50000000000001 0.0
    vertex 50.60660171779821 29.39339828220179 3.9999999999999996
    vertex 50.60660171779821 29.39339828220179 0.0
  endloop
endfacet
facet normal 0.7933533402912353 -0.6087614290087205 0.0
  outer loop
    vertex 50.60660171779821 29.39339828220179 3.9999999999999996
    vertex 52.99038105676659 32.50000000000001 0.0
    vertex 52.99038105676659 32.50000000000001 3.9999999999999996
  endloop
endfacet
facet normal -0.7933533402912357 -0.6087614290087199 -0.0
  outer loop
    vertex 47.77817459305202 47.77817459305202 3.9999999999999996
    vertex 49.52627944162882 45.49999999999999 0.0
    vertex 49.52627944162882 45.49999999999999 3.9999999999999996
  endloop
endfacet
facet normal -0.7933533402912357 -0.6087614290087199 -0.0
  outer loop
    vertex 49.52627944162882 45.49999999999999 0.0
    vertex 47.77817459305202 47.77817459305202 3.9999999999999996
    vertex 47.77817459305202 47.77817459305202 0.0
  endloop
endfacet
facet normal -0.7071067811865469 -0.7071067811865482 0.0
  outer loop
    vertex 50.60660171779821 29.39339828220179 3.9999999999999996
    vertex 47.77817459305202 32.22182540694798 0.0
    vertex 50.60660171779821 29.39339828220179 0.0
  endloop
endfacet
facet normal -0.7071067811865469 -0.7071067811865482 0.0
  outer loop
    vertex 47.77817459305202 32.22182540694798 0.0
    vertex 50.60660171779821 29.39339828220179 3.9999999999999996
    vertex 47.77817459305202 32.22182540694798 3.9999999999999996
  endloop
endfacet
facet normal 0.13052619222005254 -0.9914448613738104 -9.269870336272034e-17
  outer loop
    vertex 40.0 62.4 16.999999999999996
    vertex 34.20245338970352 61.63673850887512 3.9999999999999996
    vertex 40.0 62.4 3.9999999999999996
  endloop
endfacet
facet normal 0.13052619222005254 -0.9914448613738104 -9.269870336272034e-17
  outer loop
    vertex 34.20245338970352 61.63673850887512 3.9999999999999996
    vertex 40.0 62.4 16.999999999999996
    vertex 34.20245338970352 61.63673850887512 16.999999999999996
  endloop
endfacet
facet normal 0.0 0.0 -1.0
  outer loop
    vertex 29.000000000000004 40.0 0.0
    vertex 25.511112605663975 36.11771432346219 0.0
    vertex 25.0 40.0 0.0
  endloop
endfacet
facet normal 0.0 0.0 -1.0
  outer loop
    vertex 25.511112605663975 36.11771432346219 0.0
    vertex 29.000000000000004 40.0 0.0
    vertex 27.009618943233423 32.5 0.0
  endloop
endfacet
facet normal 0.0 0.0 -1.0
  outer loop
    vertex 27.009618943233423 32.5 0.0
    vertex 29.000000000000004 40.0 0.0
    vertex 29.39339828220179 29.39339828220179 0.0
  endloop
endfacet
facet normal 0.0 0.0 -1.0
  outer loop
    vertex 29.39339828220179 29.39339828220179 0.0
    vertex 29.000000000000004 40.0 0.0
    vertex 29.374815910820253 37.152990503872275 0.0
  endloop
endfacet
facet normal 0.0 0.0 -1.0
  outer loop
    vertex 29.39339828220179 29.39339828220179 0.0
    vertex 29.374815910820253 37.152990503872275 0.0
    vertex 30.473720558371173 34.50000000000001 0.0
  endloop
endfacet
facet normal 0.0 0.0 -1.0
  outer loop
    vertex 29.39339828220179 29.39339828220179 0.0
    vertex 30.473720558371173 34.50000000000001 0.0
    vertex 32.22182540694797 32.22182540694798 0.0
  endloop
endfacet
facet normal 0.9238795325112871 0.3826834323650891 0.0
  outer loop
    vertex 29.374815910820253 37.152990503872275 0.0
    vertex 30.473720558371173 34.50000000000001 3.9999999999999996
    vertex 30.473720558371173 34.50000000000001 0.0
  endloop
endfacet
facet normal 0.9238795325112871 0.3826834323650891 0.0
  outer loop
    vertex 30.473720558371173 34.50000000000001 3.9999999999999996
    vertex 29.374815910820253 37.152990503872275 0.0
    vertex 29.374815910820253 37.152990503872275 3.9999999999999996
  endloop
endfacet
facet normal 0.0 0.0 1.0
  outer loop
    vertex 25.511112605663975 36.11771432346219 3.9999999999999996
    vertex 25.0 56.483126490451376 3.9999999999999996
    vertex 25.0 40.0 3.9999999999999996
  endloop
endfacet
facet normal 0.0 0.0 1.0
  outer loop
    vertex 25.0 56.483126490451376 3.9999999999999996
    vertex 25.511112605663975 36.11771432346219 3.9999999999999996
    vertex 28.799999999999994 59.39896904477141 3.9999999999999996
  endloop
endfacet
facet normal 0.0 0.0 1.0
  outer loop
    vertex 28.799999999999994 59.39896904477141 3.9999999999999996
    vertex 25.511112605663975 36.11771432346219 3.9999999999999996
    vertex 27.009618943233423 32.5 3.9999999999999996
  endloop
endfacet
facet normal 0.0 0.0 1.0
  outer loop
    vertex 28.799999999999994 59.39896904477141 3.9999999999999996
    vertex 27.009618943233423 32.5 3.9999999999999996
    vertex 29.000000000000004 40.0 3.9999999999999996
  endloop
endfacet
facet normal 0.0 0.0 1.0
  outer loop
    vertex 29.000000000000004 40.0 3.9999999999999996
    vertex 27.009618943233423 32.5 3.9999999999999996
    vertex 29.39339828220179 29.39339828220179 3.9999999999999996
  endloop
endfacet
facet normal 0.0 0.0 1.0
  outer loop
    vertex 29.000000000000004 40.0 3.9999999999999996
    vertex 29.39339828220179 29.39339828220179 3.9999999999999996
    vertex 29.374815910820253 37.152990503872275 3.9999999999999996
  endloop
endfacet
facet normal 0.0 0.0 1.0
  outer loop
    vertex 29.374815910820253 37.152990503872275 3.9999999999999996
    vertex 29.39339828220179 29.39339828220179 3.9999999999999996
    vertex 30.473720558371173 34.50000000000001 3.9999999999999996
  endloop
endfacet
facet normal 0.0 0.0 1.0
  outer loop
    vertex 30.473720558371173 34.50000000000001 3.9999999999999996
    vertex 29.39339828220179 29.39339828220179 3.9999999999999996
    vertex 32.22182540694797 32.22182540694798 3.9999999999999996
  endloop
endfacet
facet normal 0.0 0.0 1.0
  outer loop
    vertex 50.60660171779821 29.39339828220179 3.9999999999999996
    vertex 49.52627944162882 34.5 3.9999999999999996
    vertex 47.77817459305202 32.22182540694798 3.9999999999999996
  endloop
endfacet
facet normal 0.0 0.0 1.0
  outer loop
    vertex 49.52627944162882 34.5 3.9999999999999996
    vertex 50.60660171779821 29.39339828220179 3.9999999999999996
    vertex 50.62518408917975 37.152990503872275 3.9999999999999996
  endloop
endfacet
facet normal 0.0 0.0 1.0
  outer loop
    vertex 50.62518408917975 37.152990503872275 3.9999999999999996
    vertex 50.60660171779821 29.39339828220179 3.9999999999999996
    vertex 52.99038105676659 32.50000000000001 3.9999999999999996
  endloop
endfacet
facet normal 0.0 0.0 1.0
  outer loop
    vertex 50.62518408917975 37.152990503872275 3.9999999999999996
    vertex 52.99038105676659 32.50000000000001 3.9999999999999996
    vertex 51.0 40.0 3.9999999999999996
  endloop
endfacet
facet normal 0.0 0.0 1.0
  outer loop
    vertex 51.0 40.0 3.9999999999999996
    vertex 52.99038105676659 32.50000000000001 3.9999999999999996
    vertex 51.199999999999996 59.39896904477143 3.9999999999999996
  endloop
endfacet
facet normal 0.0 0.0 1.0
  outer loop
    vertex 51.199999999999996 59.39896904477143 3.9999999999999996
    vertex 52.99038105676659 32.50000000000001 3.9999999999999996
    vertex 55.0 56.48312649045137 3.9999999999999996
  endloop
endfacet
facet normal 0.0 0.0 1.0
  outer loop
    vertex 55.0 56.48312649045137 3.9999999999999996
    vertex 52.99038105676659 32.50000000000001 3.9999999999999996
    vertex 54.48888739433603 36.117714323462195 3.9999999999999996
  endloop
endfacet
facet normal 0.0 0.0 1.0
  outer loop
    vertex 55.0 56.48312649045137 3.9999999999999996
    vertex 54.48888739433603 36.117714323462195 3.9999999999999996
    vertex 55.0 40.0 3.9999999999999996
  endloop
endfacet
facet normal 0.0 0.0 1.0
  outer loop
    vertex 28.799999999999994 59.39896904477141 3.9999999999999996
    vertex 29.374815910820253 42.84700949612773 3.9999999999999996
    vertex 34.20245338970352 61.63673850887512 3.9999999999999996
  endloop
endfacet
facet normal 0.0 0.0 1.0
  outer loop
    vertex 29.374815910820253 42.84700949612773 3.9999999999999996
    vertex 28.799999999999994 59.39896904477141 3.9999999999999996
    vertex 29.000000000000004 40.0 3.9999999999999996
  endloop
endfacet
facet normal 0.0 0.0 1.0
  outer loop
    vertex 34.20245338970352 61.63673850887512 3.9999999999999996
    vertex 29.374815910820253 42.84700949612773 3.9999999999999996
    vertex 30.47372055837118 45.5 3.9999999999999996
  endloop
endfacet
facet normal 0.0 0.0 1.0
  outer loop
    vertex 34.20245338970352 61.63673850887512 3.9999999999999996
    vertex 30.47372055837118 45.5 3.9999999999999996
    vertex 32.221825406947985 47.77817459305203 3.9999999999999996
  endloop
endfacet
facet normal 0.0 0.0 1.0
  outer loop
    vertex 34.20245338970352 61.63673850887512 3.9999999999999996
    vertex 32.221825406947985 47.77817459305203 3.9999999999999996
    vertex 34.50000000000001 49.52627944162882 3.9999999999999996
  endloop
endfacet
facet normal 0.0 0.0 1.0
  outer loop
    vertex 34.20245338970352 61.63673850887512 3.9999999999999996
    vertex 34.50000000000001 49.52627944162882 3.9999999999999996
    vertex 40.0 62.4 3.9999999999999996
  endloop
endfacet
facet normal 0.0 0.0 1.0
  outer loop
    vertex 40.0 62.4 3.9999999999999996
    vertex 34.50000000000001 49.52627944162882 3.9999999999999996
    vertex 37.152990503872275 50.62518408917975 3.9999999999999996
  endloop
endfacet
facet normal 0.0 0.0 1.0
  outer loop
    vertex 40.0 62.4 3.9999999999999996
    vertex 37.152990503872275 50.62518408917975 3.9999999999999996
    vertex 40.0 51.0 3.9999999999999996
  endloop
endfacet
facet normal 0.0 0.0 1.0
  outer loop
    vertex 40.0 62.4 3.9999999999999996
    vertex 40.0 51.0 3.9999999999999996
    vertex 42.847009496127725 50.62518408917975 3.9999999999999996
  endloop
endfacet
facet normal 0.0 0.0 1.0
  outer loop
    vertex 40.0 62.4 3.9999999999999996
    vertex 42.847009496127725 50.62518408917975 3.9999999999999996
    vertex 45.797546610296465 61.63673850887513 3.9999999999999996
  endloop
endfacet
facet normal 0.0 0.0 1.0
  outer loop
    vertex 45.797546610296465 61.63673850887513 3.9999999999999996
    vertex 42.847009496127725 50.62518408917975 3.9999999999999996
    vertex 45.5 49.52627944162882 3.9999999999999996
  endloop
endfacet
facet normal 0.0 0.0 1.0
  outer loop
    vertex 45.797546610296465 61.63673850887513 3.9999999999999996
    vertex 45.5 49.52627944162882 3.9999999999999996
    vertex 47.77817459305202 47.77817459305202 3.9999999999999996
  endloop
endfacet
facet normal 0.0 0.0 1.0
  outer loop
    vertex 45.797546610296465 61.63673850887513 3.9999999999999996
    vertex 47.77817459305202 47.77817459305202 3.9999999999999996
    vertex 51.199999999999996 59.39896904477143 3.9999999999999996
  endloop
endfacet
facet normal 0.0 0.0 1.0
  outer loop
    vertex 51.199999999999996 59.39896904477143 3.9999999999999996
    vertex 47.77817459305202 47.77817459305202 3.9999999999999996
    vertex 49.52627944162882 45.49999999999999 3.9999999999999996
  endloop
endfacet
facet normal 0.0 0.0 1.0
  outer loop
    vertex 51.199999999999996 59.39896904477143 3.9999999999999996
    vertex 49.52627944162882 45.49999999999999 3.9999999999999996
    vertex 50.62518408917975 42.847009496127725 3.9999999999999996
  endloop
endfacet
facet normal 0.0 0.0 1.0
  outer loop
    vertex 51.199999999999996 59.39896904477143 3.9999999999999996
    vertex 50.62518408917975 42.847009496127725 3.9999999999999996
    vertex 51.0 40.0 3.9999999999999996
  endloop
endfacet
facet normal 0.6087614290087209 -0.7933533402912352 0.0
  outer loop
    vertex 34.50000000000001 49.52627944162882 3.9999999999999996
    vertex 32.221825406947985 47.77817459305203 0.0
    vertex 34.50000000000001 49.52627944162882 0.0
  endloop
endfacet
facet normal 0.6087614290087209 -0.7933533402912352 0.0
  outer loop
    vertex 32.221825406947985 47.77817459305203 0.0
    vertex 34.50000000000001 49.52627944162882 3.9999999999999996
    vertex 32.221825406947985 47.77817459305203 3.9999999999999996
  endloop
endfacet
facet normal 0.0 0.0 -1.0
  outer loop
    vertex 25.0 68.5 0.0
    vertex 32.221825406947985 47.77817459305203 0.0
    vertex 25.0 40.0 0.0
  endloop
endfacet
facet normal 0.0 0.0 -1.0
  outer loop
    vertex 32.221825406947985 47.77817459305203 0.0
    vertex 25.0 68.5 0.0
    vertex 55.0 68.5 0.0
  endloop
endfacet
facet normal 0.0 0.0 -1.0
  outer loop
    vertex 25.0 40.0 0.0
    vertex 32.221825406947985 47.77817459305203 0.0
    vertex 30.47372055837118 45.5 0.0
  endloop
endfacet
facet normal 0.0 0.0 -1.0
  outer loop
    vertex 25.0 40.0 0.0
    vertex 30.47372055837118 45.5 0.0
    vertex 29.374815910820253 42.84700949612773 0.0
  endloop
endfacet
facet normal 0.0 0.0 -1.0
  outer loop
    vertex 25.0 40.0 0.0
    vertex 29.374815910820253 42.84700949612773 0.0
    vertex 29.000000000000004 40.0 0.0
  endloop
endfacet
facet normal 0.0 0.0 -1.0
  outer loop
    vertex 32.221825406947985 47.77817459305203 0.0
    vertex 55.0 68.5 0.0
    vertex 34.50000000000001 49.52627944162882 0.0
  endloop
endfacet
facet normal 0.0 0.0 -1.0
  outer loop
    vertex 34.50000000000001 49.52627944162882 0.0
    vertex 55.0 68.5 0.0
    vertex 37.152990503872275 50.62518408917975 0.0
  endloop
endfacet
facet normal 0.0 0.0 -1.0
  outer loop
    vertex 37.152990503872275 50.62518408917975 0.0
    vertex 55.0 68.5 0.0
    vertex 40.0 51.0 0.0
  endloop
endfacet
facet normal 0.0 0.0 -1.0
  outer loop
    vertex 40.0 51.0 0.0
    vertex 55.0 68.5 0.0
    vertex 42.847009496127725 50.62518408917975 0.0
  endloop
endfacet
facet normal 0.0 0.0 -1.0
  outer loop
    vertex 42.847009496127725 50.62518408917975 0.0
    vertex 55.0 68.5 0.0
    vertex 45.5 49.52627944162882 0.0
  endloop
endfacet
facet normal 0.0 0.0 -1.0
  outer loop
    vertex 45.5 49.52627944162882 0.0
    vertex 55.0 68.5 0.0
    vertex 47.77817459305202 47.77817459305202 0.0
  endloop
endfacet
facet normal 0.0 0.0 -1.0
  outer loop
    vertex 47.77817459305202 47.77817459305202 0.0
    vertex 55.0 68.5 0.0
    vertex 49.52627944162882 45.49999999999999 0.0
  endloop
endfacet
facet normal 0.0 0.0 -1.0
  outer loop
    vertex 49.52627944162882 45.49999999999999 0.0
    vertex 55.0 68.5 0.0
    vertex 50.62518408917975 42.847009496127725 0.0
  endloop
endfacet
facet normal 0.0 0.0 -1.0
  outer loop
    vertex 50.62518408917975 42.847009496127725 0.0
    vertex 55.0 68.5 0.0
    vertex 51.0 40.0 0.0
  endloop
endfacet
facet normal 0.0 0.0 -1.0
  outer loop
    vertex 51.0 40.0 0.0
    vertex 55.0 68.5 0.0
    vertex 55.0 40.0 0.0
  endloop
endfacet
facet normal 0.6087614290087198 -0.793353340291236 -7.855559395274925e-17
  outer loop
    vertex 28.799999999999994 59.39896904477141 16.999999999999996
    vertex 25.0 56.483126490451376 3.9999999999999996
    vertex 28.799999999999994 59.39896904477141 3.9999999999999996
  endloop
endfacet
facet normal 0.6087614290087198 -0.793353340291236 -7.855559395274925e-17
  outer loop
    vertex 25.0 56.483126490451376 3.9999999999999996
    vertex 28.799999999999994 59.39896904477141 16.999999999999996
    vertex 25.0 56.483126490451376 16.999999999999996
  endloop
endfacet
facet normal 1.0 0.0 0.0
  outer loop
    vertex 55.0 68.5 0.0
    vertex 55.0 40.0 3.9999999999999996
    vertex 55.0 40.0 0.0
  endloop
endfacet
facet normal 1.0 0.0 0.0
  outer loop
    vertex 55.0 40.0 3.9999999999999996
    vertex 55.0 68.5 0.0
    vertex 55.0 56.48312649045137 3.9999999999999996
  endloop
endfacet
facet normal 1.0 0.0 0.0
  outer loop
    vertex 55.0 56.48312649045137 3.9999999999999996
    vertex 55.0 68.5 0.0
    vertex 55.0 56.48312649045137 16.999999999999996
  endloop
endfacet
facet normal 1.0 0.0 0.0
  outer loop
    vertex 55.0 56.48312649045137 16.999999999999996
    vertex 55.0 68.5 0.0
    vertex 55.0 68.5 17.0
  endloop
endfacet
facet normal -1.0 0.0 0.0
  outer loop
    vertex 25.0 68.5 17.0
    vertex 25.0 56.483126490451376 3.9999999999999996
    vertex 25.0 56.483126490451376 16.999999999999996
  endloop
endfacet
facet normal -1.0 0.0 0.0
  outer loop
    vertex 25.0 56.483126490451376 3.9999999999999996
    vertex 25.0 40.0 0.0
    vertex 25.0 40.0 3.9999999999999996
  endloop
endfacet
facet normal -1.0 0.0 0.0
  outer loop
    vertex 25.0 40.0 0.0
    vertex 25.0 56.483126490451376 3.9999999999999996
    vertex 25.0 68.5 0.0
  endloop
endfacet
facet normal -1.0 0.0 0.0
  outer loop
    vertex 25.0 68.5 0.0
    vertex 25.0 56.483126490451376 3.9999999999999996
    vertex 25.0 68.5 17.0
  endloop
endfacet
facet normal -0.9914448613738113 0.13052619222004555 0.0
  outer loop
    vertex 41.5 79.50000000000001 26.999999999999996
    vertex 41.4488887394336 79.11177143234623 22.99999999999998
    vertex 41.4488887394336 79.11177143234623 26.999999999999996
  endloop
endfacet
facet normal -0.9914448613738113 0.13052619222004555 0.0
  outer loop
    vertex 41.4488887394336 79.11177143234623 22.99999999999998
    vertex 41.5 79.50000000000001 26.999999999999996
    vertex 41.5 79.50000000000001 22.99999999999998
  endloop
endfacet
facet normal -0.9914448613738094 -0.13052619222005968 -0.0
  outer loop
    vertex 41.4488887394336 79.8882285676538 26.999999999999996
    vertex 41.5 79.50000000000001 22.99999999999998
    vertex 41.5 79.50000000000001 26.999999999999996
  endloop
endfacet
facet normal -0.9914448613738094 -0.13052619222005968 -0.0
  outer loop
    vertex 41.5 79.50000000000001 22.99999999999998
    vertex 41.4488887394336 79.8882285676538 26.999999999999996
    vertex 41.4488887394336 79.8882285676538 22.99999999999998
  endloop
endfacet
facet normal 0.9238795325112906 0.38268343236508084 0.0
  outer loop
    vertex 38.5511112605664 79.11177143234623 22.99999999999998
    vertex 38.70096189432334 78.75000000000001 26.999999999999996
    vertex 38.70096189432334 78.75000000000001 22.99999999999998
  endloop
endfacet
facet normal 0.9238795325112906 0.38268343236508084 0.0
  outer loop
    vertex 38.70096189432334 78.75000000000001 26.999999999999996
    vertex 38.5511112605664 79.11177143234623 22.99999999999998
    vertex 38.5511112605664 79.11177143234623 26.999999999999996
  endloop
endfacet
facet normal -0.9238795325112853 0.38268343236509306 0.0
  outer loop
    vertex 41.4488887394336 79.11177143234623 26.999999999999996
    vertex 41.29903810567666 78.75000000000001 22.99999999999998
    vertex 41.29903810567666 78.75000000000001 26.999999999999996
  endloop
endfacet
facet normal -0.9238795325112853 0.38268343236509306 0.0
  outer loop
    vertex 41.29903810567666 78.75000000000001 22.99999999999998
    vertex 41.4488887394336 79.11177143234623 26.999999999999996
    vertex 41.4488887394336 79.11177143234623 22.99999999999998
  endloop
endfacet
facet normal -1.0 0.0 0.0
  outer loop
    vertex 34.5 64.5 27.0
    vertex 34.5 68.5 16.999999999999996
    vertex 34.5 64.5 17.0
  endloop
endfacet
facet normal -1.0 0.0 0.0
  outer loop
    vertex 34.5 68.5 16.999999999999996
    vertex 34.5 64.5 27.0
    vertex 34.5 68.50000000000001 22.999999999999996
  endloop
endfacet
facet normal -1.0 0.0 0.0
  outer loop
    vertex 34.5 68.50000000000001 22.999999999999996
    vertex 34.5 64.5 27.0
    vertex 34.5 91.50000000000001 26.999999999999996
  endloop
endfacet
facet normal -1.0 0.0 0.0
  outer loop
    vertex 34.5 68.50000000000001 22.999999999999996
    vertex 34.5 91.50000000000001 26.999999999999996
    vertex 34.5 91.50000000000001 22.999999999999996
  endloop
endfacet
facet normal 5.87286620148599e-33 1.0 -3.348560708708275e-16
  outer loop
    vertex 34.5 68.50000000000001 22.999999999999996
    vertex 45.5 68.5 16.999999999999996
    vertex 34.5 68.5 16.999999999999996
  endloop
endfacet
facet normal 5.87286620148599e-33 1.0 -3.348560708708275e-16
  outer loop
    vertex 45.5 68.5 16.999999999999996
    vertex 34.5 68.50000000000001 22.999999999999996
    vertex 45.5 68.50000000000001 22.999999999999996
  endloop
endfacet
facet normal 5.87286620148599e-33 1.0 -3.348560708708275e-16
  outer loop
    vertex 55.0 68.5 0.0
    vertex 45.5 68.5 16.999999999999996
    vertex 55.0 68.5 17.0
  endloop
endfacet
facet normal 5.87286620148599e-33 1.0 -3.348560708708275e-16
  outer loop
    vertex 45.5 68.5 16.999999999999996
    vertex 55.0 68.5 0.0
    vertex 34.5 68.5 16.999999999999996
  endloop
endfacet
facet normal 5.87286620148599e-33 1.0 -3.348560708708275e-16
  outer loop
    vertex 25.0 68.5 17.0
    vertex 55.0 68.5 0.0
    vertex 25.0 68.5 0.0
  endloop
endfacet
facet normal 5.87286620148599e-33 1.0 -3.348560708708275e-16
  outer loop
    vertex 55.0 68.5 0.0
    vertex 25.0 68.5 17.0
    vertex 34.5 68.5 16.999999999999996
  endloop
endfacet
facet normal 0.7933533402912378 -0.6087614290087172 0.0
  outer loop
    vertex 38.939339828220184 80.56066017177983 22.99999999999998
    vertex 38.70096189432334 80.25000000000001 26.999999999999996
    vertex 38.70096189432334 80.25000000000001 22.99999999999998
  endloop
endfacet
facet normal 0.7933533402912378 -0.6087614290087172 0.0
  outer loop
    vertex 38.70096189432334 80.25000000000001 26.999999999999996
    vertex 38.939339828220184 80.56066017177983 22.99999999999998
    vertex 38.939339828220184 80.56066017177983 26.999999999999996
  endloop
endfacet
facet normal 0.38268343236508084 0.9238795325112906 0.0
  outer loop
    vertex 39.25 78.20096189432336 26.999999999999996
    vertex 39.611771432346224 78.05111126056642 22.99999999999998
    vertex 39.25 78.20096189432336 22.99999999999998
  endloop
endfacet
facet normal 0.38268343236508084 0.9238795325112906 0.0
  outer loop
    vertex 39.611771432346224 78.05111126056642 22.99999999999998
    vertex 39.25 78.20096189432336 26.999999999999996
    vertex 39.611771432346224 78.05111126056642 26.999999999999996
  endloop
endfacet
facet normal 0.9914448613738094 -0.13052619222005968 0.0
  outer loop
    vertex 38.5511112605664 79.8882285676538 22.99999999999998
    vertex 38.5 79.50000000000001 26.999999999999996
    vertex 38.5 79.50000000000001 22.99999999999998
  endloop
endfacet
facet normal 0.9914448613738094 -0.13052619222005968 0.0
  outer loop
    vertex 38.5 79.50000000000001 26.999999999999996
    vertex 38.5511112605664 79.8882285676538 22.99999999999998
    vertex 38.5511112605664 79.8882285676538 26.999999999999996
  endloop
endfacet
facet normal -0.0 -0.0 -1.0
  outer loop
    vertex 34.5 91.50000000000001 22.999999999999996
    vertex 38.5511112605664 79.8882285676538 22.99999999999998
    vertex 34.5 68.50000000000001 22.999999999999996
  endloop
endfacet
facet normal -0.0 -0.0 -1.0
  outer loop
    vertex 38.5511112605664 79.8882285676538 22.99999999999998
    vertex 34.5 91.50000000000001 22.999999999999996
    vertex 38.70096189432334 80.25000000000001 22.99999999999998
  endloop
endfacet
facet normal -0.0 -0.0 -1.0
  outer loop
    vertex 38.70096189432334 80.25000000000001 22.99999999999998
    vertex 34.5 91.50000000000001 22.999999999999996
    vertex 45.5 91.50000000000001 22.999999999999996
  endloop
endfacet
facet normal -0.0 -0.0 -1.0
  outer loop
    vertex 34.5 68.50000000000001 22.999999999999996
    vertex 38.5511112605664 79.8882285676538 22.99999999999998
    vertex 38.5 79.50000000000001 22.99999999999998
  endloop
endfacet
facet normal -0.0 -0.0 -1.0
  outer loop
    vertex 38.70096189432334 80.25000000000001 22.99999999999998
    vertex 45.5 91.50000000000001 22.999999999999996
    vertex 38.939339828220184 80.56066017177983 22.99999999999998
  endloop
endfacet
facet normal -0.0 -0.0 -1.0
  outer loop
    vertex 38.939339828220184 80.56066017177983 22.99999999999998
    vertex 45.5 91.50000000000001 22.999999999999996
    vertex 39.25 80.79903810567666 22.99999999999998
  endloop
endfacet
facet normal -0.0 -0.0 -1.0
  outer loop
    vertex 39.25 80.79903810567666 22.99999999999998
    vertex 45.5 91.50000000000001 22.999999999999996
    vertex 39.611771432346224 80.94888873943361 22.99999999999998
  endloop
endfacet
facet normal -0.0 -0.0 -1.0
  outer loop
    vertex 39.611771432346224 80.94888873943361 22.99999999999998
    vertex 45.5 91.50000000000001 22.999999999999996
    vertex 40.0 81.00000000000001 22.99999999999998
  endloop
endfacet
facet normal -0.0 -0.0 -1.0
  outer loop
    vertex 40.0 81.00000000000001 22.99999999999998
    vertex 45.5 91.50000000000001 22.999999999999996
    vertex 40.388228567653776 80.94888873943361 22.99999999999998
  endloop
endfacet
facet normal -0.0 -0.0 -1.0
  outer loop
    vertex 40.388228567653776 80.94888873943361 22.99999999999998
    vertex 45.5 91.50000000000001 22.999999999999996
    vertex 40.75 80.79903810567666 22.99999999999998
  endloop
endfacet
facet normal -0.0 -0.0 -1.0
  outer loop
    vertex 40.75 80.79903810567666 22.99999999999998
    vertex 45.5 91.50000000000001 22.999999999999996
    vertex 41.060660171779816 80.56066017177983 22.99999999999998
  endloop
endfacet
facet normal -0.0 -0.0 -1.0
  outer loop
    vertex 41.060660171779816 80.56066017177983 22.99999999999998
    vertex 45.5 91.50000000000001 22.999999999999996
    vertex 41.29903810567666 80.25000000000001 22.99999999999998
  endloop
endfacet
facet normal -0.0 -0.0 -1.0
  outer loop
    vertex 41.29903810567666 80.25000000000001 22.99999999999998
    vertex 45.5 91.50000000000001 22.999999999999996
    vertex 41.4488887394336 79.8882285676538 22.99999999999998
  endloop
endfacet
facet normal -0.0 -0.0 -1.0
  outer loop
    vertex 41.4488887394336 79.8882285676538 22.99999999999998
    vertex 45.5 91.50000000000001 22.999999999999996
    vertex 41.5 79.50000000000001 22.99999999999998
  endloop
endfacet
facet normal -0.0 -0.0 -1.0
  outer loop
    vertex 34.5 68.50000000000001 22.999999999999996
    vertex 38.70096189432334 78.75000000000001 22.99999999999998
    vertex 45.5 68.50000000000001 22.999999999999996
  endloop
endfacet
facet normal -0.0 -0.0 -1.0
  outer loop
    vertex 38.70096189432334 78.75000000000001 22.99999999999998
    vertex 34.5 68.50000000000001 22.999999999999996
    vertex 38.5511112605664 79.11177143234623 22.99999999999998
  endloop
endfacet
facet normal -0.0 -0.0 -1.0
  outer loop
    vertex 38.5511112605664 79.11177143234623 22.99999999999998
    vertex 34.5 68.50000000000001 22.999999999999996
    vertex 38.5 79.50000000000001 22.99999999999998
  endloop
endfacet
facet normal -0.0 -0.0 -1.0
  outer loop
    vertex 45.5 68.50000000000001 22.999999999999996
    vertex 38.70096189432334 78.75000000000001 22.99999999999998
    vertex 38.939339828220184 78.43933982822018 22.99999999999998
  endloop
endfacet
facet normal -0.0 -0.0 -1.0
  outer loop
    vertex 45.5 68.50000000000001 22.999999999999996
    vertex 38.939339828220184 78.43933982822018 22.99999999999998
    vertex 39.25 78.20096189432336 22.99999999999998
  endloop
endfacet
facet normal -0.0 -0.0 -1.0
  outer loop
    vertex 45.5 68.50000000000001 22.999999999999996
    vertex 39.25 78.20096189432336 22.99999999999998
    vertex 39.611771432346224 78.05111126056642 22.99999999999998
  endloop
endfacet
facet normal -0.0 -0.0 -1.0
  outer loop
    vertex 45.5 68.50000000000001 22.999999999999996
    vertex 39.611771432346224 78.05111126056642 22.99999999999998
    vertex 40.0 78.00000000000001 22.99999999999998
  endloop
endfacet
facet normal -0.0 -0.0 -1.0
  outer loop
    vertex 45.5 68.50000000000001 22.999999999999996
    vertex 40.0 78.00000000000001 22.99999999999998
    vertex 40.38822856765378 78.05111126056642 22.99999999999998
  endloop
endfacet
facet normal -0.0 -0.0 -1.0
  outer loop
    vertex 45.5 68.50000000000001 22.999999999999996
    vertex 40.38822856765378 78.05111126056642 22.99999999999998
    vertex 40.75 78.20096189432336 22.99999999999998
  endloop
endfacet
facet normal -0.0 -0.0 -1.0
  outer loop
    vertex 45.5 68.50000000000001 22.999999999999996
    vertex 40.75 78.20096189432336 22.99999999999998
    vertex 41.060660171779816 78.43933982822018 22.99999999999998
  endloop
endfacet
facet normal -0.0 -0.0 -1.0
  outer loop
    vertex 45.5 68.50000000000001 22.999999999999996
    vertex 41.060660171779816 78.43933982822018 22.99999999999998
    vertex 41.29903810567666 78.75000000000001 22.99999999999998
  endloop
endfacet
facet normal -0.0 -0.0 -1.0
  outer loop
    vertex 45.5 68.50000000000001 22.999999999999996
    vertex 41.29903810567666 78.75000000000001 22.99999999999998
    vertex 41.4488887394336 79.11177143234623 22.99999999999998
  endloop
endfacet
facet normal -0.0 -0.0 -1.0
  outer loop
    vertex 45.5 68.50000000000001 22.999999999999996
    vertex 41.4488887394336 79.11177143234623 22.99999999999998
    vertex 41.5 79.50000000000001 22.99999999999998
  endloop
endfacet
facet normal -0.0 -0.0 -1.0
  outer loop
    vertex 45.5 68.50000000000001 22.999999999999996
    vertex 41.5 79.50000000000001 22.99999999999998
    vertex 45.5 91.50000000000001 22.999999999999996
  endloop
endfacet
facet normal 0.13052619222004555 -0.9914448613738113 0.0
  outer loop
    vertex 40.0 81.00000000000001 26.999999999999996
    vertex 39.611771432346224 80.94888873943361 22.99999999999998
    vertex 40.0 81.00000000000001 22.99999999999998
  endloop
endfacet
facet normal 0.13052619222004555 -0.9914448613738113 0.0
  outer loop
    vertex 39.611771432346224 80.94888873943361 22.99999999999998
    vertex 40.0 81.00000000000001 26.999999999999996
    vertex 39.611771432346224 80.94888873943361 26.999999999999996
  endloop
endfacet
facet normal 0.0 7.049916206369739e-16 1.0
  outer loop
    vertex 34.5 64.5 27.0
    vertex 38.5511112605664 79.11177143234623 26.999999999999996
    vertex 34.5 91.50000000000001 26.999999999999996
  endloop
endfacet
facet normal 0.0 7.049916206369739e-16 1.0
  outer loop
    vertex 38.5511112605664 79.11177143234623 26.999999999999996
    vertex 34.5 64.5 27.0
    vertex 38.70096189432334 78.75000000000001 26.999999999999996
  endloop
endfacet
facet normal 0.0 7.049916206369739e-16 1.0
  outer loop
    vertex 38.70096189432334 78.75000000000001 26.999999999999996
    vertex 34.5 64.5 27.0
    vertex 45.5 64.5 27.0
  endloop
endfacet
facet normal 0.0 7.049916206369739e-16 1.0
  outer loop
    vertex 34.5 91.50000000000001 26.999999999999996
    vertex 38.5511112605664 79.11177143234623 26.999999999999996
    vertex 38.5 79.50000000000001 26.999999999999996
  endloop
endfacet
facet normal 0.0 7.049916206369739e-16 1.0
  outer loop
    vertex 38.70096189432334 78.75000000000001 26.999999999999996
    vertex 45.5 64.5 27.0
    vertex 38.939339828220184 78.43933982822018 26.999999999999996
  endloop
endfacet
facet normal 0.0 7.049916206369739e-16 1.0
  outer loop
    vertex 38.939339828220184 78.43933982822018 26.999999999999996
    vertex 45.5 64.5 27.0
    vertex 39.25 78.20096189432336 26.999999999999996
  endloop
endfacet
facet normal 0.0 7.049916206369739e-16 1.0
  outer loop
    vertex 39.25 78.20096189432336 26.999999999999996
    vertex 45.5 64.5 27.0
    vertex 39.611771432346224 78.05111126056642 26.999999999999996
  endloop
endfacet
facet normal 0.0 7.049916206369739e-16 1.0
  outer loop
    vertex 39.611771432346224 78.05111126056642 26.999999999999996
    vertex 45.5 64.5 27.0
    vertex 40.0 78.00000000000001 26.999999999999996
  endloop
endfacet
facet normal 0.0 7.049916206369739e-16 1.0
  outer loop
    vertex 40.0 78.00000000000001 26.999999999999996
    vertex 45.5 64.5 27.0
    vertex 40.38822856765378 78.05111126056642 26.999999999999996
  endloop
endfacet
facet normal 0.0 7.049916206369739e-16 1.0
  outer loop
    vertex 40.38822856765378 78.05111126056642 26.999999999999996
    vertex 45.5 64.5 27.0
    vertex 40.75 78.20096189432336 26.999999999999996
  endloop
endfacet
facet normal 0.0 7.049916206369739e-16 1.0
  outer loop
    vertex 40.75 78.20096189432336 26.999999999999996
    vertex 45.5 64.5 27.0
    vertex 41.060660171779816 78.43933982822018 26.999999999999996
  endloop
endfacet
facet normal 0.0 7.049916206369739e-16 1.0
  outer loop
    vertex 41.060660171779816 78.43933982822018 26.999999999999996
    vertex 45.5 64.5 27.0
    vertex 41.29903810567666 78.75000000000001 26.999999999999996
  endloop
endfacet
facet normal 0.0 7.049916206369739e-16 1.0
  outer loop
    vertex 41.29903810567666 78.75000000000001 26.999999999999996
    vertex 45.5 64.5 27.0
    vertex 41.4488887394336 79.11177143234623 26.999999999999996
  endloop
endfacet
facet normal 0.0 7.049916206369739e-16 1.0
  outer loop
    vertex 41.4488887394336 79.11177143234623 26.999999999999996
    vertex 45.5 64.5 27.0
    vertex 41.5 79.50000000000001 26.999999999999996
  endloop
endfacet
facet normal 0.0 7.049916206369739e-16 1.0
  outer loop
    vertex 34.5 91.50000000000001 26.999999999999996
    vertex 38.70096189432334 80.25000000000001 26.999999999999996
    vertex 45.5 91.50000000000001 26.999999999999996
  endloop
endfacet
facet normal 0.0 7.049916206369739e-16 1.0
  outer loop
    vertex 38.70096189432334 80.25000000000001 26.999999999999996
    vertex 34.5 91.50000000000001 26.999999999999996
    vertex 38.5511112605664 79.8882285676538 26.999999999999996
  endloop
endfacet
facet normal 0.0 7.049916206369739e-16 1.0
  outer loop
    vertex 38.5511112605664 79.8882285676538 26.999999999999996
    vertex 34.5 91.50000000000001 26.999999999999996
    vertex 38.5 79.50000000000001 26.999999999999996
  endloop
endfacet
facet normal 0.0 7.049916206369739e-16 1.0
  outer loop
    vertex 45.5 91.50000000000001 26.999999999999996
    vertex 38.70096189432334 80.25000000000001 26.999999999999996
    vertex 38.939339828220184 80.56066017177983 26.999999999999996
  endloop
endfacet
facet normal 0.0 7.049916206369739e-16 1.0
  outer loop
    vertex 45.5 91.50000000000001 26.999999999999996
    vertex 38.939339828220184 80.56066017177983 26.999999999999996
    vertex 39.25 80.79903810567666 26.999999999999996
  endloop
endfacet
facet normal 0.0 7.049916206369739e-16 1.0
  outer loop
    vertex 45.5 91.50000000000001 26.999999999999996
    vertex 39.25 80.79903810567666 26.999999999999996
    vertex 39.611771432346224 80.94888873943361 26.999999999999996
  endloop
endfacet
facet normal 0.0 7.049916206369739e-16 1.0
  outer loop
    vertex 45.5 91.50000000000001 26.999999999999996
    vertex 39.611771432346224 80.94888873943361 26.999999999999996
    vertex 40.0 81.00000000000001 26.999999999999996
  endloop
endfacet
facet normal 0.0 7.049916206369739e-16 1.0
  outer loop
    vertex 45.5 91.50000000000001 26.999999999999996
    vertex 40.0 81.00000000000001 26.999999999999996
    vertex 40.388228567653776 80.94888873943361 26.999999999999996
  endloop
endfacet
facet normal 0.0 7.049916206369739e-16 1.0
  outer loop
    vertex 45.5 91.50000000000001 26.999999999999996
    vertex 40.388228567653776 80.94888873943361 26.999999999999996
    vertex 40.75 80.79903810567666 26.999999999999996
  endloop
endfacet
facet normal 0.0 7.049916206369739e-16 1.0
  outer loop
    vertex 45.5 91.50000000000001 26.999999999999996
    vertex 40.75 80.79903810567666 26.999999999999996
    vertex 41.060660171779816 80.56066017177983 26.999999999999996
  endloop
endfacet
facet normal 0.0 7.049916206369739e-16 1.0
  outer loop
    vertex 45.5 91.50000000000001 26.999999999999996
    vertex 41.060660171779816 80.56066017177983 26.999999999999996
    vertex 41.29903810567666 80.25000000000001 26.999999999999996
  endloop
endfacet
facet normal 0.0 7.049916206369739e-16 1.0
  outer loop
    vertex 45.5 91.50000000000001 26.999999999999996
    vertex 41.29903810567666 80.25000000000001 26.999999999999996
    vertex 41.4488887394336 79.8882285676538 26.999999999999996
  endloop
endfacet
facet normal 0.0 7.049916206369739e-16 1.0
  outer loop
    vertex 45.5 91.50000000000001 26.999999999999996
    vertex 41.4488887394336 79.8882285676538 26.999999999999996
    vertex 41.5 79.50000000000001 26.999999999999996
  endloop
endfacet
facet normal 0.0 7.049916206369739e-16 1.0
  outer loop
    vertex 45.5 91.50000000000001 26.999999999999996
    vertex 41.5 79.50000000000001 26.999999999999996
    vertex 45.5 64.5 27.0
  endloop
endfacet
facet normal 0.3826834323651054 -0.9238795325112803 0.0
  outer loop
    vertex 39.611771432346224 80.94888873943361 26.999999999999996
    vertex 39.25 80.79903810567666 22.99999999999998
    vertex 39.611771432346224 80.94888873943361 22.99999999999998
  endloop
endfacet
facet normal 0.3826834323651054 -0.9238795325112803 0.0
  outer loop
    vertex 39.25 80.79903810567666 22.99999999999998
    vertex 39.611771432346224 80.94888873943361 26.999999999999996
    vertex 39.25 80.79903810567666 26.999999999999996
  endloop
endfacet
facet normal 0.6087614290087061 -0.7933533402912465 0.0
  outer loop
    vertex 39.25 80.79903810567666 26.999999999999996
    vertex 38.939339828220184 80.56066017177983 22.99999999999998
    vertex 39.25 80.79903810567666 22.99999999999998
  endloop
endfacet
facet normal 0.6087614290087061 -0.7933533402912465 0.0
  outer loop
    vertex 38.939339828220184 80.56066017177983 22.99999999999998
    vertex 39.25 80.79903810567666 26.999999999999996
    vertex 38.939339828220184 80.56066017177983 26.999999999999996
  endloop
endfacet
facet normal 0.9914448613738094 0.13052619222005968 0.0
  outer loop
    vertex 38.5 79.50000000000001 22.99999999999998
    vertex 38.5511112605664 79.11177143234623 26.999999999999996
    vertex 38.5511112605664 79.11177143234623 22.99999999999998
  endloop
endfacet
facet normal 0.9914448613738094 0.13052619222005968 0.0
  outer loop
    vertex 38.5511112605664 79.11177143234623 26.999999999999996
    vertex 38.5 79.50000000000001 22.99999999999998
    vertex 38.5 79.50000000000001 26.999999999999996
  endloop
endfacet
facet normal -0.6087614290087061 0.7933533402912465 0.0
  outer loop
    vertex 40.75 78.20096189432336 26.999999999999996
    vertex 41.060660171779816 78.43933982822018 22.99999999999998
    vertex 40.75 78.20096189432336 22.99999999999998
  endloop
endfacet
facet normal -0.6087614290087061 0.7933533402912465 0.0
  outer loop
    vertex 41.060660171779816 78.43933982822018 22.99999999999998
    vertex 40.75 78.20096189432336 26.999999999999996
    vertex 41.060660171779816 78.43933982822018 26.999999999999996
  endloop
endfacet
facet normal 0.0 1.0 0.0
  outer loop
    vertex 34.5 91.50000000000001 26.999999999999996
    vertex 45.5 91.50000000000001 22.999999999999996
    vertex 34.5 91.50000000000001 22.999999999999996
  endloop
endfacet
facet normal 0.0 1.0 0.0
  outer loop
    vertex 45.5 91.50000000000001 22.999999999999996
    vertex 34.5 91.50000000000001 26.999999999999996
    vertex 45.5 91.50000000000001 26.999999999999996
  endloop
endfacet
facet normal -0.7933533402912378 0.6087614290087172 0.0
  outer loop
    vertex 41.29903810567666 78.75000000000001 26.999999999999996
    vertex 41.060660171779816 78.43933982822018 22.99999999999998
    vertex 41.060660171779816 78.43933982822018 26.999999999999996
  endloop
endfacet
facet normal -0.7933533402912378 0.6087614290087172 0.0
  outer loop
    vertex 41.060660171779816 78.43933982822018 22.99999999999998
    vertex 41.29903810567666 78.75000000000001 26.999999999999996
    vertex 41.29903810567666 78.75000000000001 22.99999999999998
  endloop
endfacet
facet normal -0.13052619222004366 0.9914448613738114 0.0
  outer loop
    vertex 40.0 78.00000000000001 26.999999999999996
    vertex 40.38822856765378 78.05111126056642 22.99999999999998
    vertex 40.0 78.00000000000001 22.99999999999998
  endloop
endfacet
facet normal -0.13052619222004366 0.9914448613738114 0.0
  outer loop
    vertex 40.38822856765378 78.05111126056642 22.99999999999998
    vertex 40.0 78.00000000000001 26.999999999999996
    vertex 40.38822856765378 78.05111126056642 26.999999999999996
  endloop
endfacet
facet normal 0.6087614290087242 0.7933533402912324 0.0
  outer loop
    vertex 38.939339828220184 78.43933982822018 26.999999999999996
    vertex 39.25 78.20096189432336 22.99999999999998
    vertex 38.939339828220184 78.43933982822018 22.99999999999998
  endloop
endfacet
facet normal 0.6087614290087242 0.7933533402912324 0.0
  outer loop
    vertex 39.25 78.20096189432336 22.99999999999998
    vertex 38.939339828220184 78.43933982822018 26.999999999999996
    vertex 39.25 78.20096189432336 26.999999999999996
  endloop
endfacet
facet normal 0.0 -1.0 7.04991620636974e-16
  outer loop
    vertex 45.5 64.5 27.0
    vertex 34.5 64.5 17.0
    vertex 45.5 64.5 17.0
  endloop
endfacet
facet normal 0.0 -1.0 7.04991620636974e-16
  outer loop
    vertex 34.5 64.5 17.0
    vertex 45.5 64.5 27.0
    vertex 34.5 64.5 27.0
  endloop
endfacet
facet normal 1.0 0.0 0.0
  outer loop
    vertex 45.5 68.5 16.999999999999996
    vertex 45.5 64.5 27.0
    vertex 45.5 64.5 17.0
  endloop
endfacet
facet normal 1.0 0.0 0.0
  outer loop
    vertex 45.5 64.5 27.0
    vertex 45.5 68.5 16.999999999999996
    vertex 45.5 68.50000000000001 22.999999999999996
  endloop
endfacet
facet normal 1.0 0.0 0.0
  outer loop
    vertex 45.5 64.5 27.0
    vertex 45.5 68.50000000000001 22.999999999999996
    vertex 45.5 91.50000000000001 26.999999999999996
  endloop
endfacet
facet normal 1.0 0.0 0.0
  outer loop
    vertex 45.5 91.50000000000001 26.999999999999996
    vertex 45.5 68.50000000000001 22.999999999999996
    vertex 45.5 91.50000000000001 22.999999999999996
  endloop
endfacet
facet normal -0.13052619222004555 -0.9914448613738113 -0.0
  outer loop
    vertex 40.388228567653776 80.94888873943361 26.999999999999996
    vertex 40.0 81.00000000000001 22.99999999999998
    vertex 40.388228567653776 80.94888873943361 22.99999999999998
  endloop
endfacet
facet normal -0.13052619222004555 -0.9914448613738113 -0.0
  outer loop
    vertex 40.0 81.00000000000001 22.99999999999998
    vertex 40.388228567653776 80.94888873943361 26.999999999999996
    vertex 40.0 81.00000000000001 26.999999999999996
  endloop
endfacet
facet normal 0.13052619222004555 0.9914448613738113 0.0
  outer loop
    vertex 39.611771432346224 78.05111126056642 26.999999999999996
    vertex 40.0 78.00000000000001 22.99999999999998
    vertex 39.611771432346224 78.05111126056642 22.99999999999998
  endloop
endfacet
facet normal 0.13052619222004555 0.9914448613738113 0.0
  outer loop
    vertex 40.0 78.00000000000001 22.99999999999998
    vertex 39.611771432346224 78.05111126056642 26.999999999999996
    vertex 40.0 78.00000000000001 26.999999999999996
  endloop
endfacet
facet normal 0.9238795325112906 -0.38268343236508084 0.0
  outer loop
    vertex 38.70096189432334 80.25000000000001 22.99999999999998
    vertex 38.5511112605664 79.8882285676538 26.999999999999996
    vertex 38.5511112605664 79.8882285676538 22.99999999999998
  endloop
endfacet
facet normal 0.9238795325112906 -0.38268343236508084 0.0
  outer loop
    vertex 38.5511112605664 79.8882285676538 26.999999999999996
    vertex 38.70096189432334 80.25000000000001 22.99999999999998
    vertex 38.70096189432334 80.25000000000001 26.999999999999996
  endloop
endfacet
facet normal 0.7933533402912378 0.6087614290087172 0.0
  outer loop
    vertex 38.70096189432334 78.75000000000001 22.99999999999998
    vertex 38.939339828220184 78.43933982822018 26.999999999999996
    vertex 38.939339828220184 78.43933982822018 22.99999999999998
  endloop
endfacet
facet normal 0.7933533402912378 0.6087614290087172 0.0
  outer loop
    vertex 38.939339828220184 78.43933982822018 26.999999999999996
    vertex 38.70096189432334 78.75000000000001 22.99999999999998
    vertex 38.70096189432334 78.75000000000001 26.999999999999996
  endloop
endfacet
facet normal -0.3826834323651105 0.9238795325112782 0.0
  outer loop
    vertex 40.38822856765378 78.05111126056642 26.999999999999996
    vertex 40.75 78.20096189432336 22.99999999999998
    vertex 40.38822856765378 78.05111126056642 22.99999999999998
  endloop
endfacet
facet normal -0.3826834323651105 0.9238795325112782 0.0
  outer loop
    vertex 40.75 78.20096189432336 22.99999999999998
    vertex 40.38822856765378 78.05111126056642 26.999999999999996
    vertex 40.75 78.20096189432336 26.999999999999996
  endloop
endfacet
facet normal -0.9238795325112906 -0.38268343236508084 -0.0
  outer loop
    vertex 41.29903810567666 80.25000000000001 26.999999999999996
    vertex 41.4488887394336 79.8882285676538 22.99999999999998
    vertex 41.4488887394336 79.8882285676538 26.999999999999996
  endloop
endfacet
facet normal -0.9238795325112906 -0.38268343236508084 -0.0
  outer loop
    vertex 41.4488887394336 79.8882285676538 22.99999999999998
    vertex 41.29903810567666 80.25000000000001 26.999999999999996
    vertex 41.29903810567666 80.25000000000001 22.99999999999998
  endloop
endfacet
facet normal -0.3826834323651054 -0.9238795325112803 -0.0
  outer loop
    vertex 40.75 80.79903810567666 26.999999999999996
    vertex 40.388228567653776 80.94888873943361 22.99999999999998
    vertex 40.75 80.79903810567666 22.99999999999998
  endloop
endfacet
facet normal -0.3826834323651054 -0.9238795325112803 -0.0
  outer loop
    vertex 40.388228567653776 80.94888873943361 22.99999999999998
    vertex 40.75 80.79903810567666 26.999999999999996
    vertex 40.388228567653776 80.94888873943361 26.999999999999996
  endloop
endfacet
facet normal -0.7933533402912378 -0.6087614290087172 -0.0
  outer loop
    vertex 41.060660171779816 80.56066017177983 26.999999999999996
    vertex 41.29903810567666 80.25000000000001 22.99999999999998
    vertex 41.29903810567666 80.25000000000001 26.999999999999996
  endloop
endfacet
facet normal -0.7933533402912378 -0.6087614290087172 -0.0
  outer loop
    vertex 41.29903810567666 80.25000000000001 22.99999999999998
    vertex 41.060660171779816 80.56066017177983 26.999999999999996
    vertex 41.060660171779816 80.56066017177983 22.99999999999998
  endloop
endfacet
facet normal -0.6087614290087061 -0.7933533402912465 -0.0
  outer loop
    vertex 41.060660171779816 80.56066017177983 26.999999999999996
    vertex 40.75 80.79903810567666 22.99999999999998
    vertex 41.060660171779816 80.56066017177983 22.99999999999998
  endloop
endfacet
facet normal -0.6087614290087061 -0.7933533402912465 -0.0
  outer loop
    vertex 40.75 80.79903810567666 22.99999999999998
    vertex 41.060660171779816 80.56066017177983 26.999999999999996
    vertex 40.75 80.79903810567666 26.999999999999996
  endloop
endfacet
endsolid UAV_3d_laser_sensor_stand
